<svg width="1080" height="590" viewBox="0 0 1080 590" fill="none" xmlns="http://www.w3.org/2000/svg">
<g clip-path="url(#clip0)">
<path d="M1080 552.48C1080 520.313 1063.68 494.237 1043.54 494.237C1030.89 494.237 1019.74 504.542 1013.21 520.182C1011 519.265 1008.63 518.79 1006.24 518.784C1000.14 518.784 994.51 521.907 989.915 527.192C984.022 507.691 971.528 494.237 957.065 494.237C943.543 494.237 931.749 506.008 925.456 523.477C921.959 520.526 917.553 518.869 912.978 518.784C897.526 518.784 885 538.796 885 563.483C884.936 571.712 886.432 579.879 889.408 587.551H1072.65C1077.26 577.795 1080 565.65 1080 552.48Z" fill="#38A3A5"/>
<path d="M949.299 216.151C920.589 154.044 864.403 101.061 796.528 92.4256C778.582 90.1424 759.844 91.0581 743.193 98.1312C721.336 107.416 705.228 126.156 688.947 143.444C654.476 180.037 615.901 212.534 573.987 240.291C553.3 253.987 531.111 266.766 506.55 270.27C457.305 277.296 408.594 243.714 386.136 199.328C372.106 171.602 365.623 139.049 354.282 110.209C341.221 110.184 325.659 110.189 308.917 110.266C262.64 110.48 224.973 111.163 224.973 111.163C224.973 111.163 269.747 51.856 308.749 73.8289C321.213 80.8508 334.268 87.117 346.266 92.3956C339.45 79.2848 330.853 67.4883 319.025 58.0036C295.704 39.3017 264.118 34.0559 234.256 35.4486C202.9 36.9112 171.255 45.3062 145.775 63.641C100.384 96.303 81.6399 153.794 65.5972 207.364L104.375 226.804C121.008 212.424 145.33 198.199 167.749 210.829C206.752 232.802 251.556 247.391 251.556 247.391C251.556 247.391 214.194 247.053 167.917 247.266C160.145 247.302 152.625 247.351 145.476 247.408L576 463.237C718 465.237 825.068 457.558 960 463.237C967.037 463.533 982.866 426.645 982.918 416.937C983.29 348.516 978.009 278.259 949.299 216.151ZM811.417 234.766C765.141 234.98 727.473 235.663 727.473 235.663C727.473 235.663 772.247 176.356 811.249 198.329C850.252 220.302 895.056 234.891 895.056 234.891C895.056 234.891 857.694 234.553 811.417 234.766L811.417 234.766Z" fill="#F2F2F2"/>
<path opacity="0.3" d="M932 437.737C932 414.348 917.519 395.388 899.657 395.388C888.429 395.388 878.541 402.881 872.742 414.253C870.75 413.581 868.663 413.238 866.561 413.237C861.125 413.329 855.936 415.519 852.078 419.35C846.851 405.171 835.765 395.388 822.935 395.388C810.938 395.388 800.475 403.947 794.891 416.648C791.616 414.45 787.766 413.264 783.822 413.237C770.113 413.237 759 427.788 759 445.737C758.96 451.791 760.297 457.775 762.911 463.237H925.477C929.836 455.45 932.085 446.66 932 437.737V437.737Z" fill="#38A3A5"/>
<path d="M1080 589.237H82V587.237H1079L1080 589.237Z" fill="#2F2E41"/>
<path d="M998 465.237H0V463.237H997L998 465.237Z" fill="#2F2E41"/>
<path d="M423.63 281.137C423.63 281.137 429.915 235.043 440.391 247.614C450.867 260.185 440.391 279.041 440.391 279.041L432.01 289.517L423.63 283.232V281.137Z" fill="#FFB8B8"/>
<path d="M398.488 295.803C398.488 295.803 419.439 272.756 423.63 276.946C427.82 281.137 440.391 283.232 438.296 291.612C436.201 299.993 392.202 327.23 392.202 327.23L398.488 295.803Z" fill="#38A3A5"/>
<path opacity="0.1" d="M398.488 295.803C398.488 295.803 419.439 272.756 423.63 276.946C427.82 281.137 440.391 283.232 438.296 291.612C436.201 299.993 392.202 327.23 392.202 327.23L398.488 295.803Z" fill="#38A3A5"/>
<path d="M279.064 293.708V310.469C279.064 310.469 276.969 348.182 289.539 346.087C302.11 343.991 295.825 312.564 295.825 312.564L293.73 293.708H279.064Z" fill="#FFB8B8"/>
<path d="M285.349 415.227C285.349 415.227 266.493 444.559 260.207 446.654C253.922 448.749 220.399 467.606 216.209 486.462L186.877 524.175L201.543 543.032C201.543 543.032 268.588 471.796 287.444 465.511C306.301 459.225 325.157 427.798 325.157 427.798L285.349 415.227Z" fill="#FFB8B8"/>
<path d="M434.105 367.038C434.105 367.038 473.913 373.324 467.628 398.466C461.342 423.607 400.583 475.986 400.583 475.986L398.488 488.557L375.441 492.748L364.965 482.272L367.06 475.986C367.06 475.986 392.202 452.94 394.297 444.559C396.393 436.178 419.439 402.656 429.915 400.561L415.249 392.18L434.105 367.038Z" fill="#FFB8B8"/>
<path d="M193.162 524.175C193.162 524.175 201.543 511.604 188.972 513.699C176.401 515.795 168.02 517.89 168.02 526.27C168.02 534.651 178.496 593.315 191.067 589.125C203.638 584.935 193.162 566.078 193.162 566.078C193.162 566.078 199.448 549.317 203.638 547.222C207.828 545.127 207.828 534.651 203.638 534.651C199.448 534.651 191.067 528.365 193.162 524.175Z" fill="#2F2E41"/>
<path d="M371.251 478.082C371.251 478.082 371.251 467.606 362.87 478.082C354.489 488.557 350.299 496.938 358.68 503.224C367.06 509.509 396.393 524.175 396.393 524.175C396.393 524.175 427.82 530.461 423.63 515.794C423.63 515.794 402.678 505.319 402.678 496.938C402.678 488.557 402.678 473.891 396.393 478.082C390.107 482.272 371.251 484.367 371.251 478.082Z" fill="#2F2E41"/>
<path d="M331.443 320.945C331.443 320.945 302.11 325.135 304.206 367.038C304.206 367.038 266.493 404.751 276.969 417.322C287.444 429.893 310.491 452.94 318.872 446.654C327.252 440.369 352.394 392.18 352.394 392.18C352.394 392.18 411.059 413.132 421.534 402.656C432.01 392.18 442.486 367.038 442.486 367.038L390.107 339.801L331.443 320.945Z" fill="#2F2E41"/>
<path d="M413.154 201.521C427.039 201.521 438.296 190.264 438.296 176.379C438.296 162.493 427.039 151.237 413.154 151.237C399.268 151.237 388.012 162.493 388.012 176.379C388.012 190.264 399.268 201.521 413.154 201.521Z" fill="#FFB8B8"/>
<path d="M394.297 178.474C394.297 178.474 379.631 201.521 375.441 203.616C371.251 205.711 404.773 226.663 404.773 226.663C404.773 226.663 404.773 199.425 415.249 193.14L394.297 178.474Z" fill="#FFB8B8"/>
<path d="M392.202 201.521C392.202 201.521 358.68 191.045 352.394 207.806C346.109 224.567 331.443 255.995 333.538 276.946C335.633 297.898 339.823 293.708 333.538 299.993C327.252 306.279 323.062 302.088 325.157 310.469C327.252 318.85 329.348 318.85 327.252 323.04C325.157 327.23 352.394 341.896 375.441 343.991L398.488 346.087C398.488 346.087 398.488 308.374 402.678 299.993C406.868 291.613 415.249 274.851 415.249 268.566V251.935C415.249 240.866 412.36 229.988 406.868 220.377V220.377C406.868 220.377 394.297 201.521 392.202 201.521Z" fill="#38A3A5"/>
<path d="M367.06 209.901C367.06 209.901 289.539 216.187 281.159 237.138C272.778 258.09 268.588 299.993 276.969 299.993C285.349 299.993 295.825 304.183 297.92 299.993C300.015 295.803 308.396 253.9 310.491 253.9C312.586 253.9 375.441 247.614 375.441 247.614C375.441 247.614 402.678 214.092 367.06 209.901Z" fill="#38A3A5"/>
<path d="M414.164 170.146C414.164 170.146 420.836 158.551 429.176 168.622C437.516 178.693 451.083 160.186 449 156.237C446.917 152.288 439.562 156.414 426.958 152.294C414.354 148.174 390.073 139.78 386.007 167.161C381.941 194.543 391.625 191.672 391.625 191.672C391.625 191.672 396.064 167.409 400.076 174.379L404.089 181.348L407.569 182.205L414.164 170.146Z" fill="#2F2E41"/>
<path opacity="0.3" d="M194 437.737C194 414.348 179.519 395.388 161.657 395.388C150.429 395.388 140.541 402.881 134.742 414.253C132.75 413.581 130.663 413.238 128.561 413.237C123.125 413.329 117.936 415.519 114.078 419.35C108.851 405.171 97.7655 395.388 84.9348 395.388C72.9382 395.388 62.475 403.947 56.8914 416.648C53.616 414.45 49.7664 413.264 45.8218 413.237C32.1131 413.237 21 427.788 21 445.737C20.9599 451.791 22.2971 457.775 24.9106 463.237H187.477C191.836 455.45 194.085 446.66 194 437.737V437.737Z" fill="#38A3A5"/>
</g>
<defs>
<clipPath id="clip0">
<rect width="1080" height="589.339" fill="white"/>
</clipPath>
</defs>
</svg>
